<?xml version="1.0" encoding="UTF-8" standalone="no"?>
<svg
   xmlns:dc="http://purl.org/dc/elements/1.1/"
   xmlns:cc="http://creativecommons.org/ns#"
   xmlns:rdf="http://www.w3.org/1999/02/22-rdf-syntax-ns#"
   xmlns:svg="http://www.w3.org/2000/svg"
   xmlns="http://www.w3.org/2000/svg"
   xmlns:sodipodi="http://sodipodi.sourceforge.net/DTD/sodipodi-0.dtd"
   xmlns:inkscape="http://www.inkscape.org/namespaces/inkscape"
   version="1.1"
   id="Layer_1"
   x="0px"
   y="0px"
   viewBox="0 0 122.7962 77.238452"
   xml:space="preserve"
   sodipodi:docname="hands.svg"
   inkscape:version="0.92.5 (2060ec1f9f, 2020-04-08)"
   width="122.7962"
   height="77.238449"
   inkscape:export-filename="/home/shaun/Projects/VersatileController/Assets/VersatileControllerAndroid/Textures/handsthumb.png"
   inkscape:export-xdpi="400.26999"
   inkscape:export-ydpi="400.26999"><metadata
     id="metadata11"><rdf:RDF><cc:Work
         rdf:about=""><dc:format>image/svg+xml</dc:format><dc:type
           rdf:resource="http://purl.org/dc/dcmitype/StillImage" /><dc:title></dc:title></cc:Work></rdf:RDF></metadata><defs
     id="defs9" /><sodipodi:namedview
     pagecolor="#ffffff"
     bordercolor="#666666"
     borderopacity="1"
     objecttolerance="10"
     gridtolerance="10"
     guidetolerance="10"
     inkscape:pageopacity="0"
     inkscape:pageshadow="2"
     inkscape:window-width="1920"
     inkscape:window-height="1024"
     id="namedview7"
     showgrid="false"
     inkscape:zoom="8.8541669"
     inkscape:cx="47.317402"
     inkscape:cy="42.288208"
     inkscape:window-x="0"
     inkscape:window-y="0"
     inkscape:window-maximized="1"
     inkscape:current-layer="g4"
     fit-margin-top="0"
     fit-margin-left="0"
     fit-margin-right="0"
     fit-margin-bottom="0" /><g
     id="g4"
     style="display:inline"
     inkscape:label="Layer"
     transform="translate(-0.00262832,0.00939368)"><path
       style="display:inline;fill:none;stroke:#000000;stroke-width:3;stroke-linecap:round;stroke-linejoin:round;stroke-miterlimit:4;stroke-dasharray:none;stroke-opacity:1;paint-order:normal"
       d="m 14.569412,65.497056 c 3.562145,3.6748 7.244379,7.246667 12.875293,9.148236 4.384299,0.892622 8.868263,1.286919 13.552941,0.677647 5.269448,-1.003002 8.650889,-2.244074 11.632941,-4.517648 2.435812,-2.870174 4.265296,-5.976939 5.195294,-10.051764 L 58.051764,19.64294 C 55.990984,14.807346 50.31049,13.725291 47.661176,19.304116 v 14.908235 l 0.11294,-22.13647 C 45.929151,7.1724092 39.492024,6.4758301 37.609411,12.301764 L 37.49647,34.09941 v 0 L 37.383529,5.2994105 C 35.484201,0.77598096 29.824438,-0.3899587 27.105882,5.5252929 v 28.6870581 0 L 26.88,12.188822 C 25.757059,7.9070588 19.118955,6.0643987 17.054117,12.414705 L 16.828235,51.153527 9.4870586,44.602939 C 2.8416778,41.888598 0.33285701,47.453461 2.0329411,51.831175 Z"
       id="path818"
       inkscape:connector-curvature="0"
       sodipodi:nodetypes="cccccccccccccccccccccc"
       inkscape:label="HandFlatLeft" /><path
       sodipodi:nodetypes="cccccccccccccccccccccc"
       inkscape:connector-curvature="0"
       id="path820"
       d="m 108.23204,65.609997 c -3.56215,3.6748 -7.24438,7.246667 -12.875296,9.148236 -4.384299,0.892622 -8.868263,1.286919 -13.552941,0.677647 -5.269448,-1.003002 -8.650889,-2.244074 -11.63294,-4.517648 -2.435812,-2.870174 -4.265296,-5.976939 -5.195294,-10.051764 L 64.749686,19.755881 c 2.06078,-4.835594 7.741274,-5.917649 10.390587,-0.338824 v 14.908235 l -0.11294,-22.13647 c 1.844965,-4.9034716 8.282092,-5.6000507 10.164705,0.225883 l 0.112941,21.797646 v 0 L 85.41792,5.4123517 c 1.899328,-4.52342957 7.559091,-5.68936923 10.277647,0.2258824 v 28.6870579 0 L 95.921449,12.301763 C 97.04439,8.02 103.68249,6.1773399 105.74733,12.527646 l 0.22588,38.738822 7.34118,-6.550588 c 6.64538,-2.714341 9.1542,2.850522 7.45412,7.228236 z"
       style="display:inline;fill:none;stroke:#000000;stroke-width:3;stroke-linecap:round;stroke-linejoin:round;stroke-miterlimit:4;stroke-dasharray:none;stroke-opacity:1;paint-order:normal"
       inkscape:label="HandFlatRight" /><g
       id="g831"
       style="display:inline"
       inkscape:label="HandPointLeft"><path
         style="display:inline;fill:none;stroke:#000000;stroke-width:3;stroke-linecap:round;stroke-linejoin:round;stroke-miterlimit:4;stroke-dasharray:none;stroke-opacity:1;paint-order:normal"
         d="m 9.9388239,60.188821 c 3.5621451,3.6748 11.8749671,12.554902 17.5058811,14.456471 4.384299,0.892622 8.868263,1.286919 13.552941,0.677647 5.269448,-1.003002 8.650889,-2.244074 11.632941,-4.517648 2.435812,-2.870174 4.265296,-5.976939 5.195294,-10.051764 l 0.112942,-14.230588 c -1.056854,3.753556 -6.183784,8.712653 -10.503531,0 l 0.225884,-12.310588 -0.225884,12.310588 c -0.190326,2.591066 -4.716461,9.865864 -9.938822,0.564706 v -12.988235 0 12.988235 c -1.264628,5.504828 -8.276558,5.924301 -10.164706,0.338823 L 27.105882,34.212351 v 0 L 26.88,12.188822 C 25.757059,7.9070588 19.118955,6.0643987 17.054117,12.414705 l -0.225882,38.738822 11.52,1.694117 c 7.413367,0.154976 5.748711,11.816532 -1.694118,11.068236 z"
         id="path822"
         inkscape:connector-curvature="0"
         sodipodi:nodetypes="cccccccccccccccccccccc" /><path
         sodipodi:nodetypes="cc"
         inkscape:connector-curvature="0"
         id="path824"
         d="M 14.795294,65.271174 C 4.7155213,56.241294 4.3418995,48.018042 16.828235,51.153527"
         style="fill:none;stroke:#000000;stroke-width:3;stroke-linecap:butt;stroke-linejoin:round;stroke-miterlimit:4;stroke-dasharray:none;stroke-opacity:1" /><path
         sodipodi:nodetypes="ccccc"
         inkscape:connector-curvature="0"
         id="path826"
         d="m 27.105882,34.212351 c 2.858322,-7.014309 8.944729,-4.342567 10.390588,-0.112941 2.800486,-6.959393 8.259168,-4.159314 10.164706,0.112941 3.517298,-7.181124 9.383593,-3.039103 10.503529,-0.451765 l -0.225882,12.762353"
         style="fill:none;stroke:#000000;stroke-width:3;stroke-linecap:butt;stroke-linejoin:round;stroke-miterlimit:4;stroke-dasharray:none;stroke-opacity:1" /><path
         sodipodi:nodetypes="cccccccccccccccccccccc"
         inkscape:connector-curvature="0"
         id="path833"
         d="m 9.9388239,60.188821 c 3.5621451,3.6748 11.8749671,12.554902 17.5058811,14.456471 4.384299,0.892622 8.868263,1.286919 13.552941,0.677647 5.269448,-1.003002 8.650889,-2.244074 11.632941,-4.517648 2.435812,-2.870174 4.265296,-5.976939 5.195294,-10.051764 l 0.112942,-14.230588 c -1.056854,3.753556 -6.183784,8.712653 -10.503531,0 l 0.225884,-12.310588 -0.225884,12.310588 c -0.190326,2.591066 -4.716461,9.865864 -9.938822,0.564706 v -12.988235 0 12.988235 c -1.264628,5.504828 -8.276558,5.924301 -10.164706,0.338823 L 27.105882,34.212351 v 0 L 26.88,12.188822 C 25.757059,7.9070588 19.118955,6.0643987 17.054117,12.414705 l -0.225882,38.738822 11.52,1.694117 c 7.413367,0.154976 5.748711,11.816532 -1.694118,11.068236 z"
         style="display:inline;fill:none;stroke:#000000;stroke-width:3;stroke-linecap:round;stroke-linejoin:round;stroke-miterlimit:4;stroke-dasharray:none;stroke-opacity:1;paint-order:normal" /></g><g
       id="g843"
       transform="matrix(-1,0,0,1,122.80145,0.112941)"
       style="display:inline"
       inkscape:label="HandPointRight"><path
         sodipodi:nodetypes="cccccccccccccccccccccc"
         inkscape:connector-curvature="0"
         id="path835"
         d="m 9.9388239,60.188821 c 3.5621451,3.6748 11.8749671,12.554902 17.5058811,14.456471 4.384299,0.892622 8.868263,1.286919 13.552941,0.677647 5.269448,-1.003002 8.650889,-2.244074 11.632941,-4.517648 2.435812,-2.870174 4.265296,-5.976939 5.195294,-10.051764 l 0.112942,-14.230588 c -1.056854,3.753556 -6.183784,8.712653 -10.503531,0 l 0.225884,-12.310588 -0.225884,12.310588 c -0.190326,2.591066 -4.716461,9.865864 -9.938822,0.564706 v -12.988235 0 12.988235 c -1.264628,5.504828 -8.276558,5.924301 -10.164706,0.338823 L 27.105882,34.212351 v 0 L 26.88,12.188822 C 25.757059,7.9070588 19.118955,6.0643987 17.054117,12.414705 l -0.225882,38.738822 11.52,1.694117 c 7.413367,0.154976 5.748711,11.816532 -1.694118,11.068236 z"
         style="display:inline;fill:none;stroke:#000000;stroke-width:3;stroke-linecap:round;stroke-linejoin:round;stroke-miterlimit:4;stroke-dasharray:none;stroke-opacity:1;paint-order:normal" /><path
         style="fill:none;stroke:#000000;stroke-width:3;stroke-linecap:butt;stroke-linejoin:round;stroke-miterlimit:4;stroke-dasharray:none;stroke-opacity:1"
         d="M 14.795294,65.271174 C 4.7155213,56.241294 4.3418995,48.018042 16.828235,51.153527"
         id="path837"
         inkscape:connector-curvature="0"
         sodipodi:nodetypes="cc" /><path
         style="fill:none;stroke:#000000;stroke-width:3;stroke-linecap:butt;stroke-linejoin:round;stroke-miterlimit:4;stroke-dasharray:none;stroke-opacity:1"
         d="m 27.105882,34.212351 c 2.858322,-7.014309 8.944729,-4.342567 10.390588,-0.112941 2.800486,-6.959393 8.259168,-4.159314 10.164706,0.112941 3.517298,-7.181124 9.383593,-3.039103 10.503529,-0.451765 l -0.225882,12.762353"
         id="path839"
         inkscape:connector-curvature="0"
         sodipodi:nodetypes="ccccc" /><path
         style="display:inline;fill:none;stroke:#000000;stroke-width:3;stroke-linecap:round;stroke-linejoin:round;stroke-miterlimit:4;stroke-dasharray:none;stroke-opacity:1;paint-order:normal"
         d="m 9.9388239,60.188821 c 3.5621451,3.6748 11.8749671,12.554902 17.5058811,14.456471 4.384299,0.892622 8.868263,1.286919 13.552941,0.677647 5.269448,-1.003002 8.650889,-2.244074 11.632941,-4.517648 2.435812,-2.870174 4.265296,-5.976939 5.195294,-10.051764 l 0.112942,-14.230588 c -1.056854,3.753556 -6.183784,8.712653 -10.503531,0 l 0.225884,-12.310588 -0.225884,12.310588 c -0.190326,2.591066 -4.716461,9.865864 -9.938822,0.564706 v -12.988235 0 12.988235 c -1.264628,5.504828 -8.276558,5.924301 -10.164706,0.338823 L 27.105882,34.212351 v 0 L 26.88,12.188822 C 25.757059,7.9070588 19.118955,6.0643987 17.054117,12.414705 l -0.225882,38.738822 11.52,1.694117 c 7.413367,0.154976 5.748711,11.816532 -1.694118,11.068236 z"
         id="path841"
         inkscape:connector-curvature="0"
         sodipodi:nodetypes="cccccccccccccccccccccc" /></g><g
       inkscape:label="HandFistLeft"
       style="display:inline"
       id="g853"><path
         sodipodi:nodetypes="cccccccccccccccccccccc"
         inkscape:connector-curvature="0"
         id="path845"
         d="m 9.9388239,60.188821 c 3.5621451,3.6748 11.8749671,12.554902 17.5058811,14.456471 4.384299,0.892622 8.868263,1.286919 13.552941,0.677647 5.269448,-1.003002 8.650889,-2.244074 11.632941,-4.517648 2.435812,-2.870174 4.265296,-5.976939 5.195294,-10.051764 l 0.112942,-14.230588 c -1.056854,3.753556 -6.183784,8.712653 -10.503531,0 l 0.225884,-12.310588 -0.225884,12.310588 c -0.190326,2.591066 -4.716461,9.865864 -9.938822,0.564706 v -12.988235 0 12.988235 c -1.264628,5.504828 -8.276558,5.924301 -10.164706,0.338823 L 27.105882,34.212351 v 0 0 C 25.982941,29.930588 18.780131,27.749104 16.715293,34.09941 l 0.112942,17.054117 11.52,1.694117 c 7.413367,0.154976 5.748711,11.816532 -1.694118,11.068236 z"
         style="display:inline;fill:none;stroke:#000000;stroke-width:3;stroke-linecap:round;stroke-linejoin:round;stroke-miterlimit:4;stroke-dasharray:none;stroke-opacity:1;paint-order:normal" /><path
         style="fill:none;stroke:#000000;stroke-width:3;stroke-linecap:butt;stroke-linejoin:round;stroke-miterlimit:4;stroke-dasharray:none;stroke-opacity:1"
         d="M 14.795294,65.271174 C 4.7155213,56.241294 4.3418995,48.018042 16.828235,51.153527"
         id="path847"
         inkscape:connector-curvature="0"
         sodipodi:nodetypes="cc" /><path
         style="fill:none;stroke:#000000;stroke-width:3;stroke-linecap:butt;stroke-linejoin:round;stroke-miterlimit:4;stroke-dasharray:none;stroke-opacity:1"
         d="m 27.105882,34.212351 c 2.858322,-7.014309 8.944729,-4.342567 10.390588,-0.112941 2.800486,-6.959393 8.259168,-4.159314 10.164706,0.112941 3.517298,-7.181124 9.383593,-3.039103 10.503529,-0.451765 l -0.225882,12.762353"
         id="path849"
         inkscape:connector-curvature="0"
         sodipodi:nodetypes="ccccc" /><path
         style="display:inline;fill:none;stroke:#000000;stroke-width:3;stroke-linecap:round;stroke-linejoin:round;stroke-miterlimit:4;stroke-dasharray:none;stroke-opacity:1;paint-order:normal"
         d="m 9.9388239,60.188821 c 3.5621451,3.6748 11.8749671,12.554902 17.5058811,14.456471 4.384299,0.892622 8.868263,1.286919 13.552941,0.677647 5.269448,-1.003002 8.650889,-2.244074 11.632941,-4.517648 2.435812,-2.870174 4.265296,-5.976939 5.195294,-10.051764 l 0.112942,-14.230588 c -1.056854,3.753556 -6.183784,8.712653 -10.503531,0 l 0.225884,-12.310588 -0.225884,12.310588 c -0.190326,2.591066 -4.716461,9.865864 -9.938822,0.564706 v -12.988235 0 12.988235 c -1.264628,5.504828 -8.276558,5.924301 -10.164706,0.338823 L 27.105882,34.212351 v 0 l 0.225882,13.214117 C 25.13528,54.800312 17.97147,52.082476 16.941176,47.200587 l -0.112941,3.95294 11.52,1.694117 c 7.413367,0.154976 5.748711,11.816532 -1.694118,11.068236 z"
         id="path851"
         inkscape:connector-curvature="0"
         sodipodi:nodetypes="cccccccccccccccccccccc" /></g><g
       id="g873"
       style="display:inline"
       inkscape:label="HandFistRight"
       transform="matrix(-1,0,0,1,122.80145,0.112941)"><path
         style="display:inline;fill:none;stroke:#000000;stroke-width:3;stroke-linecap:round;stroke-linejoin:round;stroke-miterlimit:4;stroke-dasharray:none;stroke-opacity:1;paint-order:normal"
         d="m 9.9388239,60.188821 c 3.5621451,3.6748 11.8749671,12.554902 17.5058811,14.456471 4.384299,0.892622 8.868263,1.286919 13.552941,0.677647 5.269448,-1.003002 8.650889,-2.244074 11.632941,-4.517648 2.435812,-2.870174 4.265296,-5.976939 5.195294,-10.051764 l 0.112942,-14.230588 c -1.056854,3.753556 -6.183784,8.712653 -10.503531,0 l 0.225884,-12.310588 -0.225884,12.310588 c -0.190326,2.591066 -4.716461,9.865864 -9.938822,0.564706 v -12.988235 0 12.988235 c -1.264628,5.504828 -8.276558,5.924301 -10.164706,0.338823 L 27.105882,34.212351 v 0 0 C 25.982941,29.930588 18.780131,27.749104 16.715293,34.09941 l 0.112942,17.054117 11.52,1.694117 c 7.413367,0.154976 5.748711,11.816532 -1.694118,11.068236 z"
         id="path865"
         inkscape:connector-curvature="0"
         sodipodi:nodetypes="cccccccccccccccccccccc" /><path
         sodipodi:nodetypes="cc"
         inkscape:connector-curvature="0"
         id="path867"
         d="M 14.795294,65.271174 C 4.7155213,56.241294 4.3418995,48.018042 16.828235,51.153527"
         style="fill:none;stroke:#000000;stroke-width:3;stroke-linecap:butt;stroke-linejoin:round;stroke-miterlimit:4;stroke-dasharray:none;stroke-opacity:1" /><path
         sodipodi:nodetypes="ccccc"
         inkscape:connector-curvature="0"
         id="path869"
         d="m 27.105882,34.212351 c 2.858322,-7.014309 8.944729,-4.342567 10.390588,-0.112941 2.800486,-6.959393 8.259168,-4.159314 10.164706,0.112941 3.517298,-7.181124 9.383593,-3.039103 10.503529,-0.451765 l -0.225882,12.762353"
         style="fill:none;stroke:#000000;stroke-width:3;stroke-linecap:butt;stroke-linejoin:round;stroke-miterlimit:4;stroke-dasharray:none;stroke-opacity:1" /><path
         sodipodi:nodetypes="cccccccccccccccccccccc"
         inkscape:connector-curvature="0"
         id="path871"
         d="m 9.9388239,60.188821 c 3.5621451,3.6748 11.8749671,12.554902 17.5058811,14.456471 4.384299,0.892622 8.868263,1.286919 13.552941,0.677647 5.269448,-1.003002 8.650889,-2.244074 11.632941,-4.517648 2.435812,-2.870174 4.265296,-5.976939 5.195294,-10.051764 l 0.112942,-14.230588 c -1.056854,3.753556 -6.183784,8.712653 -10.503531,0 l 0.225884,-12.310588 -0.225884,12.310588 c -0.190326,2.591066 -4.716461,9.865864 -9.938822,0.564706 v -12.988235 0 12.988235 c -1.264628,5.504828 -8.276558,5.924301 -10.164706,0.338823 L 27.105882,34.212351 v 0 l 0.225882,13.214117 C 25.13528,54.800312 17.97147,52.082476 16.941176,47.200587 l -0.112941,3.95294 11.52,1.694117 c 7.413367,0.154976 5.748711,11.816532 -1.694118,11.068236 z"
         style="display:inline;fill:none;stroke:#000000;stroke-width:3;stroke-linecap:round;stroke-linejoin:round;stroke-miterlimit:4;stroke-dasharray:none;stroke-opacity:1;paint-order:normal" /></g><g
       id="g883"
       style="display:inline"
       inkscape:label="HandThumbLeft"><path
         sodipodi:nodetypes="ccccc"
         inkscape:connector-curvature="0"
         id="path879"
         d="m 27.105882,34.212351 c 2.858322,-7.014309 8.944729,-4.342567 10.390588,-0.112941 2.800486,-6.959393 8.259168,-4.159314 10.164706,0.112941 3.517298,-7.181124 9.383593,-3.039103 10.503529,-0.451765 l -0.225882,12.762353"
         style="display:inline;fill:none;stroke:#000000;stroke-width:3;stroke-linecap:butt;stroke-linejoin:round;stroke-miterlimit:4;stroke-dasharray:none;stroke-opacity:1" /><path
         sodipodi:nodetypes="cccccccccccccccccccccc"
         inkscape:connector-curvature="0"
         id="path881"
         d="m 15.924706,66.739409 c 0.651114,3.939439 5.815302,6.011022 11.519999,7.905883 4.384299,0.892622 8.868263,1.286919 13.552941,0.677647 5.269448,-1.003002 8.650889,-2.244074 11.632941,-4.517648 2.435812,-2.870174 4.265296,-5.976939 5.195294,-10.051764 l 0.112942,-14.230588 c -1.056854,3.753556 -6.183784,8.712653 -10.503531,0 l 0.225884,-12.310588 -0.225884,12.310588 c -0.190326,2.591066 -4.716461,9.865864 -9.938822,0.564706 v -12.988235 0 12.988235 c -1.264628,5.504828 -8.276558,5.924301 -10.164706,0.338823 L 27.105882,34.212351 v 0 l 0.225882,13.214117 C 25.13528,54.800312 17.97147,52.082476 16.941176,47.200587 l -0.112941,3.95294 C 13.378073,49.728996 10.52251,46.850186 6.6635292,46.522939 c -5.0953571,-0.490516 -6.91725221,6.723664 -2.7105881,8.58353 5.0896924,2.182289 9.0279199,4.804816 11.9717649,11.63294 z"
         style="display:inline;fill:none;stroke:#000000;stroke-width:3;stroke-linecap:round;stroke-linejoin:round;stroke-miterlimit:4;stroke-dasharray:none;stroke-opacity:1;paint-order:normal" /><path
         style="fill:none;stroke:#000000;stroke-width:3;stroke-linecap:butt;stroke-linejoin:round;stroke-miterlimit:4;stroke-dasharray:none;stroke-opacity:1"
         d="M 27.105882,34.212351 C 24.583902,28.496905 18.747861,28.897212 16.715293,34.09941 l 0.112942,17.054117"
         id="path885"
         inkscape:connector-curvature="0"
         sodipodi:nodetypes="ccc" /></g><g
       inkscape:label="HandThumbRight"
       style="display:inline"
       id="g893"
       transform="matrix(-1,0,0,1,122.80145,0.112941)"><path
         style="display:inline;fill:none;stroke:#000000;stroke-width:3;stroke-linecap:butt;stroke-linejoin:round;stroke-miterlimit:4;stroke-dasharray:none;stroke-opacity:1"
         d="m 27.105882,34.212351 c 2.858322,-7.014309 8.944729,-4.342567 10.390588,-0.112941 2.800486,-6.959393 8.259168,-4.159314 10.164706,0.112941 3.517298,-7.181124 9.383593,-3.039103 10.503529,-0.451765 l -0.225882,12.762353"
         id="path887"
         inkscape:connector-curvature="0"
         sodipodi:nodetypes="ccccc" /><path
         style="display:inline;fill:none;stroke:#000000;stroke-width:3;stroke-linecap:round;stroke-linejoin:round;stroke-miterlimit:4;stroke-dasharray:none;stroke-opacity:1;paint-order:normal"
         d="m 15.924706,66.739409 c 0.651114,3.939439 5.815302,6.011022 11.519999,7.905883 4.384299,0.892622 8.868263,1.286919 13.552941,0.677647 5.269448,-1.003002 8.650889,-2.244074 11.632941,-4.517648 2.435812,-2.870174 4.265296,-5.976939 5.195294,-10.051764 l 0.112942,-14.230588 c -1.056854,3.753556 -6.183784,8.712653 -10.503531,0 l 0.225884,-12.310588 -0.225884,12.310588 c -0.190326,2.591066 -4.716461,9.865864 -9.938822,0.564706 v -12.988235 0 12.988235 c -1.264628,5.504828 -8.276558,5.924301 -10.164706,0.338823 L 27.105882,34.212351 v 0 l 0.225882,13.214117 C 25.13528,54.800312 17.97147,52.082476 16.941176,47.200587 l -0.112941,3.95294 C 13.378073,49.728996 10.52251,46.850186 6.6635292,46.522939 c -5.0953571,-0.490516 -6.91725221,6.723664 -2.7105881,8.58353 5.0896924,2.182289 9.0279199,4.804816 11.9717649,11.63294 z"
         id="path889"
         inkscape:connector-curvature="0"
         sodipodi:nodetypes="cccccccccccccccccccccc" /><path
         sodipodi:nodetypes="ccc"
         inkscape:connector-curvature="0"
         id="path891"
         d="M 27.105882,34.212351 C 24.583902,28.496905 18.747861,28.897212 16.715293,34.09941 l 0.112942,17.054117"
         style="fill:none;stroke:#000000;stroke-width:3;stroke-linecap:butt;stroke-linejoin:round;stroke-miterlimit:4;stroke-dasharray:none;stroke-opacity:1" /></g></g></svg>